<?xml version="1.0" encoding="UTF-8"?>
<svg id="Layer_1" xmlns="http://www.w3.org/2000/svg" version="1.1" viewBox="0 0 381 348.83">
  <!-- Generator: Adobe Illustrator 29.3.1, SVG Export Plug-In . SVG Version: 2.1.0 Build 151)  -->
  <defs>
    <style>
      .st0 {
        fill: #f392bd;
      }
    </style>
  </defs>
  <path class="st0" d="M342.79,221.32c-.29-1.87-4.65-9.36-5.9-11.37-6.12-9.84-14.67-18.03-21.82-26.65-.72-.87-1.05-1.96-2.22-3.19-.13-.14-.28-.27-.42-.42-2.18-4.56-6.18-8.15-9.15-12.07-5.29-6.99-9.9-14.52-15.58-21.24-5.16-6.1-11.23-11.21-17.26-16.23-5.98-4.98-11.45-7.53-17.3-11.82-2.96-2.17-6.3-6.46-1.41-8.58.41.02.84.02,1.25,0,3.91-.19,8-.03,10.83-3.1,2.89-7.17,5.18-13.81,6.63-21.46.26-1.38.65-2.88.83-4.16,1.6-11.49-.44-32.27-6.54-42.35-.19-.32-1.66-2.31-1.79-2.39-.75-.52-5.4-1.49-6.44-1.5-2.56-.01-5.22.78-7.36,2.14-.52.33-2.06,1.35-1.99,2.05-8.99,6.14-16.21,13.04-26.19,18.32-14.09,7.46-20.36,7.64-35.75,9.57-.14.02-.28-.02-.42,0-1.49-1.1-3.52-1.28-5.27-2.01-17.97-7.47-37.78-24.2-50.61-38.41-.78-.87-.58-1.5-1.91-2.46-2.19-1.58-1.63-.64-2.91.42-10.12,8.31-17.81,34.12-19.95,47.04-.16.95-.28,1.95-.42,2.91-.26,1.84-1.12,3.91-1.26,6.02-.5,7.22,1.07,15.44.53,22.82,1.46,1.63,1.8,6.21,3.01,7.4,2.28,2.24,8.21-.76,9.75,1.47,1.58,2.29-.52,4.31-2.1,5.75-4.09,3.72-8.97,7.26-13.25,11.08-.79.7-1.57,1.67-2.49,2.5-2.32,1.19-4.84,2.94-6.86,4.58-11.63,9.45-21.77,20.5-33.05,30.39-.15.13-.27.29-.42.42-2.37,2.08-5.68,4.14-8.12,6.23-3.45,2.94-6.52,6.93-10.08,9.98-1.34,1.15-5.02,3.11-5.92,4.38-2.57,3.62-.7,10.85-2.48,14.79v2.91c.5,1.01,1.52,2.02,2.05,2.82.59.89.97,1.52,1.62,2.43,1.2,1.7,1.91,4.84,4.23,4.13,5-1.54,12.9-14.22,16.4-18.56.64-.8,1.6-1.84,2.72-1.65.91.93-5.59,13.76-6.65,15.61-1.37,2.4-3.14,4.53-4.58,6.86-.58.94-1.06,1.95-1.66,2.91-3.72,5.95-8.96,11.38-6.43,19.14,2.47,7.58,10.27,10.5,15.14,16.07,3.83,2.12,5.05,5.74,9.37,1.84,5.25-4.73,12.5-25.2,16.77-32.75.92-1.62,4.97-8.02,6.31-8.69,1.33-.67,1.95,1.72,1.89,2.74-.4,7.55-5.19,15.4-6.47,22.46-.02.13.03.28,0,.42-1.38,2.7-2.18,5.67-3.45,8.41-2.81,6.12-6.09,10.8-6.53,18.03-.6,9.77,6.04,21.72,16.62,22.27,2.48.13,3.31.02,5.4-1.25.32-.2.8-.22,1.11-.54,2.15-2.22,4.1-10.65,5.01-13.94,4.04-14.66,8.6-32.85,9.65-47.76.57-8.1,5.98-18.63,8.13-26.85.41-1.57,1.21-8.36,2.13-8.68,1.42-.5,2.65.29,3.9.78,3.48,2.73,5.73,7.35,11.3,4.14.49-.28,3.92-2.56,4.29-2.89,1.7-1.48,5.84-9.02,7.47-9.14,3-.23,1.11,4.91.63,6.64-.79,2.87-3.74,7.86-1.05,10.41,3.37,3.2,14.87.78,19.56.81,8.84.06,17.96,1.39,27.02,1.28,3.64-.05,9.81-.17,13.24-.89,6.89-1.44,8.23-7.18,8.98-13.28.1-.84.37-1.66.42-2.5.16-2.89.1-5.9-.41-8.74.58.08,1.57-.2,2.01.07.24.15,2.35,4.11,2.87,4.82,3.03,4.14,6.65,8.65,11.33,10.92,3.64,1.76,5.59,2.04,9.56,1.67,5.53-.52,9.79-3.3,14.97-5,.27,0,.56-.02.83,0,.97-.06,1.43-.04,1.65,1.05.58,2.79.06,6.23.47,9.1.94,6.64,3.57,14.13,4.82,20.99,1.31,7.2,1.86,14.61,3.16,21.82,1.91,10.63,4.57,20.71,6.12,31.54.19,1.31.65,2.75.83,4.16.76,5.81.7,11.88,1.71,17.64.33,1.89.55,3.67,1.61,5.25.06.09,1.42,1.67,1.53,1.69.76.16,3.1-.65,3.9-1.04,3.47-1.7,9.8-7.88,12.86-10.64,2.05-1.22,4.1-3.4,5.73-5.29-.18-4.65,1.04-10.02-1.16-14.28-.09-.59-.29-1.45-.42-2.08-1.03-5.01-3.05-11.05-5.48-15.55-.31-.58-.16-1.32-1.17-1.1-.33-.91-.53-2.38-.83-3.33-.35-1.13-2.57-7.69-2.5-8.11.14-.73,1.31-.66,1.82-.25.23.18,1.72,4.41,2.22,5.33,1.14,2.08,2.95,4.01,4.27,5.94.94,1.37,1.75,3.08,2.49,4.16.94,1.36,2.18,2.24,2.88,3.27,1.99,2.93,4.23,11.91,6.52,13.34.6.37,1.35.53,2.04.5,1.34-.06,5.71-7.06,6.87-8.47,2.74-3.33,7.63-6.7,7.47-11.33-.28-7.86-7.12-21.81-11.08-28.9-1.82-3.25-4.67-5.86-5.56-9.63.02-.14-.03-.3,0-.42,4.81,1.24,7.35,6.8,9.85,10.72,2.92,4.59,7.42,13.96,10.94,17.17.38.34.64,1.18,1.25,1.46,2.24,1.03,3.55-2.79,5.29-3.65.29-.32.01-.92.1-1.14,1.03-.74,1.66-2.32,2.15-3.46,1.56-3.61,3.48-8.87,3.67-12.77.03-.61.09-1.52,0-2.08Z"/>
  <path class="st0" d="M257.62,234.39c-1.27-7.4-.97-15.55-2.18-22.79-1.13-6.77-5.94-7.65-11.92-9.3-3.79-1.04-13.03-3.91-16.3-4.28-1.13-.13-5.97-.2-6.8.07-1.53.5-1.31,2.31-1.52,3.26-2.22,10.27-15.32,7.38-23.05,7.06-1.96-.08-4.63-.25-6.46.44-1.84-.29-2.71-.6-4.99-.83-1.18-.12-2.35-.19-3.52-.43l-14.36.02c-8.95-1.58-18.96-2-28.27-2.91.23-1.34-.68-.71-1.45-.81-4.56-.59-11.37-2.87-15.15.63-2.12,1.95-5.78,14.69-6.67,18.09-1.12,4.25-1.62,7.32-2.08,11.66,0,.03-.39.14-.42.42-.02.27.02.56,0,.83-2.68,9.61.63,18.94,4.63,27.62,3.98,8.63,6.86,11.94,13.93,17.48,4.86,3.81,5.56,6.13,12.72,5.15,2.66-.36,9.6-4.14,11.44-2.29,1,1,.39,11.15.52,13.43.25,4.46,1.24,9.5,1.86,13.96.64,1.59,2.08,2.5,3.67,1.57.55-.32.61-.88,1-1.19.98-.77.75-.62,1.36-1.22,1.17-1.17,2.49-2.85,3.52-3.76.63-.55,1.79-.74,1.88-.82.91-.12,1.29.24,1.89.81,1.81,1.72,3.31,5.3,5.15,7.33,3.31,3.65,7.48.91,10.15-1.95,1-1.07,1.61-3.73,3.6-2.68.53.28,3.15,6.44,4.22,7.87,1.34,1.79,3.05,3.55,5.44,3.09,3.65-.71,6.07-7.54,7.07-7.97,2.52-1.07,4.67,2.52,6.24,3.16,3.42,1.39,4.2-.57,4.47-3.43.03-.27-.01-.56,0-.83.01-.21,0-.3,0-.42.02-.97-.04-1.95,0-2.91,1.61-6.55.39-13.45,1.29-20.14.18-1.31.57-2.71,1.62-3.58.8-.04,1.7-.05,2.49,0,2.77.17,5.51.72,8.31.83.96.04,1.94,0,2.91,0,.77.6,2.18.87,3.12.87,6.81-.03,18.64-5.27,21.48-11.82,1.91-4.42,3.21-16.85,2.83-21.71-.46-5.84-2.71-11.86-3.69-17.54ZM229.3,220.49c2.2-1.54,7.29-5.68,9.76-5.76.89-.03,4.17.42,4.95.82,2.74,1.4,4.25,8.91,4.41,11.81.93,16.32-11.89,32.51-28.9,31.02-6.42-.56-11.17-4.86-13.91-10.42-.22-1.87-.53-3.48-.42-5.41.76-1.09.95-2.39,1.59-3.61,2.53-4.86,5.38-4.74,9.31-7.65,3.32-2.46,6.59-5.96,10.31-8.72.98-.73,1.91-1.38,2.91-2.08ZM186.32,279.75c-1.06-.72-4.47-2.55-5.12-3.19-.77-.76-1.68-4.27-1.35-5.46,1.42-3.01,5.87-11.53,9-12.22,6.66-1.48,11.92,10.08,12.19,15.51.1,2.02-.51,8.99-1.66,10.44-2.59,3.24-9.13-2.48-11.71-4.14-.42-.27-1.08-.17-1.19-.24-.03-.02.08-.52-.16-.68ZM160.97,232.5c4.04,1.94,10.06,3.62,13.6,5.94,1.02.67.71.89,1.1,1.61,1.42,2.64.87,3.3-.71,5.72-.75,1.15-7.77,7.09-9.21,7.96-6.09,3.69-12.93,6.21-20.17,5.42-4.15-.45-6.77-3.02-10.24-4.94-2.4-2.34-4.88-5.48-6.65-8.33-3.24-6.67-2.47-13.62-2.49-20.81.68-6.39-.5-14.54,8.28-9.33,8.97,5.33,16.58,12,26.49,16.76Z"/>
</svg>